<?xml version="1.0" encoding="utf-8"?>
<!-- Generator: Adobe Illustrator 16.0.4, SVG Export Plug-In . SVG Version: 6.00 Build 0)  -->
<!DOCTYPE svg PUBLIC "-//W3C//DTD SVG 1.1//EN" "http://www.w3.org/Graphics/SVG/1.1/DTD/svg11.dtd">
<svg version="1.1" xmlns="http://www.w3.org/2000/svg" xmlns:xlink="http://www.w3.org/1999/xlink" x="0px" y="0px" width="364px"
	 height="79px" viewBox="0 0 364 79" enable-background="new 0 0 364 79" xml:space="preserve">
<g id="Ebene_1" display="none">
	<rect x="7.684" y="26.369" display="inline" fill="none" width="473.649" height="73.082"/>
	<text transform="matrix(1 0 0 1 7.6836 64.3691)" display="inline"><tspan x="0" y="0" font-family="'Tahoma-Bold'" font-size="50">VELO     </tspan><tspan x="204.858" y="0" fill="#418AC9" font-family="'Tahoma-Bold'" font-size="50">HERO</tspan></text>
	<g display="inline">
		<path fill="#418AC9" d="M206.792,12.733c-3.431-2.738-13.74-3.362-22.237-2.487c-8.296,0.854-13.37,2.936-20.43,8.067
			c-1.564,1.138-0.265,3.394,1.513,2.59c6.892-3.106,14.637-4.53,22.152-4.495c4.284,0.021,8.522,0.656,12.704,1.54
			c1.912,0.405,3.819,0.958,5.78,0.688C209.767,18.156,209.254,14.697,206.792,12.733z"/>
		<path d="M159.71,30.502c-0.523-2.002-0.292-3.692,0.506-5.106c-1.482-1.046-3.782-1.386-6.127-0.726
			c-3.513,0.984-5.787,3.827-5.08,6.344c0.708,2.521,4.128,3.764,7.641,2.776c1.544-0.436,2.848-1.228,3.765-2.194
			C160.105,31.383,159.851,31.041,159.71,30.502z"/>
		<path d="M158.028,38.154c-7.454,0-13.495,6.04-13.495,13.495c0,7.453,6.041,13.495,13.495,13.495
			c7.453,0,13.496-6.042,13.496-13.495C171.524,44.194,165.481,38.154,158.028,38.154z M159.088,60.91
			c-4.468,0-8.089-3.621-8.089-8.09s3.621-8.091,8.089-8.091c4.469,0,8.091,3.622,8.091,8.091
			C167.179,57.288,163.557,60.91,159.088,60.91z"/>
		<path d="M201.11,23.216c-7.541-3.885-41.808-5.858-38.008,6.925c0.614,2.07,3.337,0.903,3.798,0.76
			c5.369-1.67,6.588-2.933,10.558-3.562c5.21-0.825,12.917-0.964,14.808,1.25c-5.412,1.239-12.03,1.402-16.293,4.985
			c-3.915,3.294-3.266,8.464-1.949,12.986c0.246,0.845,1.503,0.874,1.736,0c0.835-3.154,1.552-4.846,4.239-7.539
			c2.114-2.119,5.954-3.093,8.831-3.747c4.936-1.124,8.445-0.441,12.933-1.624c2.394-0.63,3.682-2.492,3.812-4.437
			C205.761,26.401,204.938,25.188,201.11,23.216z"/>
		<path d="M193.252,38.154c-7.454,0-13.495,6.04-13.495,13.495c0,7.453,6.041,13.495,13.495,13.495
			c7.453,0,13.496-6.042,13.496-13.495C206.748,44.194,200.705,38.154,193.252,38.154z M194.312,60.91
			c-4.468,0-8.089-3.621-8.089-8.09s3.621-8.091,8.089-8.091c4.469,0,8.091,3.622,8.091,8.091
			C202.403,57.288,198.78,60.91,194.312,60.91z"/>
	</g>
</g>
<g id="Ebene_1_Kopie">
	<g>
		<g>
			<path d="M42.828,27.005l-12.5,36.354h-9.521l-12.5-36.354h9.473l7.91,24.635l7.91-24.635H42.828z"/>
			<path d="M46.197,63.358V27.005h24.585v6.934H55.279v6.373h14.282v6.934H55.279v9.18h15.503v6.934H46.197z"/>
			<path d="M101.226,63.358H76.958V27.005h9.131v29.42h15.137V63.358z"/>
			<path d="M138.677,45.194c0,5.875-1.571,10.498-4.712,13.867c-3.142,3.369-7.446,5.053-12.915,5.053
				c-5.485,0-9.79-1.705-12.915-5.113c-3.125-3.41-4.688-8.012-4.688-13.807c0-5.844,1.562-10.461,4.688-13.855
				c3.125-3.393,7.43-5.09,12.915-5.09c5.469,0,9.773,1.688,12.915,5.066C137.106,34.692,138.677,39.319,138.677,45.194z
				 M129.253,45.169c0-2.164-0.224-4.008-0.672-5.529c-0.447-1.521-1.046-2.771-1.794-3.748c-0.781-0.992-1.664-1.705-2.649-2.135
				c-0.984-0.432-2.006-0.648-3.063-0.648c-1.123,0-2.141,0.199-3.052,0.6c-0.912,0.398-1.791,1.109-2.637,2.135
				c-0.749,0.945-1.355,2.197-1.818,3.76c-0.465,1.562-0.696,3.428-0.696,5.592c0,2.23,0.22,4.08,0.659,5.555
				c0.439,1.473,1.041,2.705,1.807,3.697c0.781,1.01,1.668,1.73,2.661,2.162c0.992,0.43,2.018,0.646,3.076,0.646
				c1.074,0,2.115-0.232,3.125-0.695c1.009-0.465,1.88-1.186,2.612-2.162c0.781-1.057,1.383-2.291,1.807-3.697
				C129.042,49.292,129.253,47.448,129.253,45.169z"/>
			<path fill="#418AC9" d="M248.004,63.358h-9.131V47.245h-12.427v16.113h-9.131V27.005h9.131v13.307h12.427V27.005h9.131V63.358z"
				/>
			<path fill="#418AC9" d="M255.523,63.358V27.005h24.584v6.934h-15.502v6.373h14.281v6.934h-14.281v9.18h15.502v6.934H255.523z"/>
			<path fill="#418AC9" d="M319.902,63.358H308.77l-10.131-13.33h-3.271v13.33h-9.082V27.005h14.623
				c2.018,0,3.775,0.127,5.273,0.379s2.881,0.777,4.15,1.574c1.303,0.83,2.336,1.885,3.102,3.162
				c0.764,1.277,1.146,2.902,1.146,4.871c0,2.783-0.627,5.041-1.879,6.775c-1.254,1.732-2.93,3.111-5.029,4.137L319.902,63.358z
				 M305.205,38.138c0-0.91-0.174-1.695-0.523-2.355c-0.352-0.658-0.934-1.168-1.746-1.525c-0.57-0.244-1.205-0.398-1.904-0.465
				c-0.701-0.064-1.572-0.098-2.613-0.098h-3.051v9.791h2.611c1.27,0,2.348-0.078,3.236-0.232c0.887-0.154,1.639-0.484,2.258-0.988
				c0.586-0.455,1.021-1.002,1.307-1.637C305.062,39.993,305.205,39.163,305.205,38.138z"/>
			<path fill="#418AC9" d="M355.693,45.194c0,5.875-1.57,10.498-4.711,13.867c-3.143,3.369-7.447,5.053-12.916,5.053
				c-5.484,0-9.789-1.705-12.914-5.113c-3.125-3.41-4.688-8.012-4.688-13.807c0-5.844,1.562-10.461,4.688-13.855
				c3.125-3.393,7.43-5.09,12.914-5.09c5.469,0,9.773,1.688,12.916,5.066C354.123,34.692,355.693,39.319,355.693,45.194z
				 M346.27,45.169c0-2.164-0.223-4.008-0.672-5.529c-0.447-1.521-1.045-2.771-1.793-3.748c-0.781-0.992-1.664-1.705-2.65-2.135
				c-0.984-0.432-2.006-0.648-3.062-0.648c-1.123,0-2.141,0.199-3.053,0.6c-0.912,0.398-1.791,1.109-2.637,2.135
				c-0.748,0.945-1.355,2.197-1.818,3.76c-0.465,1.562-0.695,3.428-0.695,5.592c0,2.23,0.219,4.08,0.658,5.555
				c0.439,1.473,1.041,2.705,1.807,3.697c0.781,1.01,1.668,1.73,2.662,2.162c0.992,0.43,2.018,0.646,3.076,0.646
				c1.074,0,2.115-0.232,3.125-0.695c1.008-0.465,1.879-1.186,2.611-2.162c0.781-1.057,1.383-2.291,1.807-3.697
				C346.059,49.292,346.27,47.448,346.27,45.169z"/>
		</g>
		<g>
			<path fill="#418AC9" d="M207.805,11.723c-3.431-2.738-13.74-3.362-22.237-2.487c-8.296,0.854-13.37,2.936-20.43,8.067
				c-1.564,1.138-0.265,3.394,1.513,2.59c6.892-3.106,14.637-4.53,22.152-4.495c4.284,0.021,8.522,0.656,12.704,1.54
				c1.912,0.405,3.819,0.958,5.78,0.688C210.78,17.146,210.267,13.687,207.805,11.723z"/>
			<path d="M160.723,29.491c-0.523-2.002-0.292-3.692,0.506-5.106c-1.482-1.046-3.782-1.386-6.127-0.726
				c-3.513,0.984-5.787,3.827-5.08,6.344c0.708,2.521,4.128,3.764,7.641,2.776c1.544-0.436,2.848-1.228,3.765-2.194
				C161.119,30.372,160.864,30.03,160.723,29.491z"/>
			<path d="M159.042,37.144c-7.454,0-13.495,6.04-13.495,13.495c0,7.453,6.041,13.495,13.495,13.495
				c7.453,0,13.496-6.042,13.496-13.495C172.537,43.184,166.494,37.144,159.042,37.144z M160.101,59.899
				c-4.468,0-8.089-3.621-8.089-8.09s3.621-8.091,8.089-8.091c4.469,0,8.091,3.622,8.091,8.091
				C168.192,56.277,164.57,59.899,160.101,59.899z"/>
			<path d="M202.124,22.205c-7.541-3.885-41.808-5.858-38.008,6.925c0.614,2.07,3.337,0.903,3.798,0.76
				c5.369-1.67,6.588-2.933,10.558-3.562c5.21-0.825,12.917-0.964,14.808,1.25c-5.412,1.239-12.03,1.402-16.293,4.985
				c-3.915,3.294-3.266,8.464-1.949,12.986c0.246,0.845,1.503,0.874,1.736,0c0.835-3.154,1.552-4.846,4.239-7.539
				c2.114-2.119,5.954-3.093,8.831-3.747c4.936-1.124,8.445-0.441,12.933-1.624c2.394-0.63,3.682-2.492,3.812-4.437
				C206.774,25.391,205.951,24.177,202.124,22.205z"/>
			<path d="M194.265,37.144c-7.454,0-13.495,6.04-13.495,13.495c0,7.453,6.041,13.495,13.495,13.495
				c7.453,0,13.496-6.042,13.496-13.495C207.761,43.184,201.718,37.144,194.265,37.144z M195.325,59.899
				c-4.468,0-8.089-3.621-8.089-8.09s3.621-8.091,8.089-8.091c4.469,0,8.091,3.622,8.091,8.091
				C203.416,56.277,199.793,59.899,195.325,59.899z"/>
		</g>
	</g>
</g>
</svg>
