<?xml version="1.0" encoding="utf-8"?>
<!-- Generator: Adobe Illustrator 16.0.4, SVG Export Plug-In . SVG Version: 6.00 Build 0)  -->
<!DOCTYPE svg PUBLIC "-//W3C//DTD SVG 1.1//EN" "http://www.w3.org/Graphics/SVG/1.1/DTD/svg11.dtd">
<svg version="1.1" id="Ebene_1" xmlns="http://www.w3.org/2000/svg" xmlns:xlink="http://www.w3.org/1999/xlink" x="0px" y="0px"
	 width="512px" height="512px" viewBox="0 0 512 512" enable-background="new 0 0 512 512" xml:space="preserve">
<path fill="#FFFFFF" d="M512,467c0,24.853-20.147,45-45,45H45c-24.853,0-45-20.147-45-45V45C0,20.147,20.147,0,45,0h422
	c24.853,0,45,20.147,45,45V467z"/>
<g>
	<path fill="#418AC9" d="M485.004,67.759c-26.07-20.805-104.383-25.546-168.948-18.899c-63.017,6.494-101.571,22.306-155.213,61.292
		c-11.877,8.646-2,25.783,11.501,19.674C224.7,106.23,283.541,95.41,340.639,95.678c32.544,0.154,64.749,4.985,96.516,11.701
		c14.529,3.078,29.015,7.276,43.923,5.223C507.606,108.957,503.7,82.677,485.004,67.759z"/>
	<path d="M127.302,202.75c-3.967-15.21-2.219-28.052,3.852-38.795c-11.264-7.942-28.74-10.529-46.557-5.513
		c-26.688,7.481-43.964,29.076-38.588,48.198c5.375,19.158,31.358,28.594,58.052,21.095c11.722-3.309,21.633-9.327,28.595-16.671
		C130.309,209.442,128.372,206.846,127.302,202.75z"/>
	<path d="M114.528,260.886C57.893,260.886,12,306.777,12,363.415c0,56.622,45.893,102.528,102.527,102.528
		c56.614,0,102.527-45.906,102.527-102.528C217.054,306.777,171.141,260.886,114.528,260.886z M122.576,433.775
		c-33.952,0-61.459-27.516-61.459-61.468c0-33.942,27.507-61.469,61.459-61.469c33.953,0,61.477,27.526,61.477,61.469
		C184.052,406.253,156.529,433.775,122.576,433.775z"/>
	<path d="M441.833,147.398c-57.286-29.514-317.625-44.507-288.755,52.609c4.664,15.729,25.353,6.861,28.853,5.773
		c40.792-12.688,50.051-22.283,80.215-27.061c39.583-6.267,98.126-7.322,112.492,9.496c-41.114,9.418-91.388,10.658-123.781,37.879
		c-29.739,25.025-24.81,64.298-14.81,98.657c1.87,6.423,11.426,6.64,13.189,0c6.354-23.958,11.8-36.815,32.204-57.279
		c16.061-16.097,45.235-23.494,67.091-28.464c37.501-8.539,64.157-3.354,98.254-12.337c18.186-4.786,27.969-18.932,28.956-33.703
		C477.173,171.597,470.909,162.377,441.833,147.398z"/>
	<path d="M382.127,260.886c-56.629,0-102.518,45.891-102.518,102.528c0,56.622,45.889,102.528,102.518,102.528
		c56.631,0,102.536-45.906,102.536-102.528C484.663,306.777,438.758,260.886,382.127,260.886z M390.186,433.775
		c-33.944,0-61.46-27.516-61.46-61.468c0-33.942,27.516-61.469,61.46-61.469s61.469,27.526,61.469,61.469
		C451.655,406.253,424.13,433.775,390.186,433.775z"/>
</g>
</svg>
